<svg id="Ebene_1" data-name="Ebene 1" xmlns="http://www.w3.org/2000/svg" viewBox="0 0 136.59 134.97"><defs><style>.cls-1{fill:#dc858c;}.cls-2,.cls-3{fill:none;stroke:#000;stroke-miterlimit:10;}.cls-2{stroke-width:3px;}.cls-3{stroke-width:2px;}</style></defs><path class="cls-1" d="M276.85,203.15v63.63a63.62,63.62,0,0,1-63.62,63.62H149.6V266.78c0-1.84.08-3.66.24-5.47a63.18,63.18,0,0,1,9.94-29.08c.23-.34.45-.69.69-1a63.57,63.57,0,0,1,52.76-28Z" transform="translate(-140.26 -203.15)"/><path class="cls-2" d="M269,209.37V273a63.62,63.62,0,0,1-63.62,63.62H141.76V273c0-1.84.08-3.66.24-5.47a63.18,63.18,0,0,1,9.94-29.08c.23-.34.45-.69.69-1a63.57,63.57,0,0,1,52.76-28Z" transform="translate(-140.26 -203.15)"/><path class="cls-3" d="M151.68,238.81A63.3,63.3,0,0,0,141.76,273V267.9A63,63,0,0,1,151.68,238.81Z" transform="translate(-140.26 -203.15)"/><rect x="22.21" y="47.09" width="37.98" height="7.84"/><rect x="22.21" y="64.55" width="31.25" height="7.84"/><rect x="72.09" y="64.55" width="34.41" height="7.84"/><rect x="185.68" y="269.07" width="45.5" height="7.84" transform="translate(341.16 -138.58) rotate(90)"/><rect x="152.36" y="277.8" width="28.05" height="7.84" transform="translate(-255.59 244.96) rotate(-90)"/><rect x="220.09" y="269.07" width="45.5" height="7.84" transform="translate(375.58 -173) rotate(90)"/></svg>