<svg id="Ebene_1" data-name="Ebene 1" xmlns="http://www.w3.org/2000/svg" viewBox="0 0 136.59 134.97"><defs><style>.cls-1{fill:#365274;}.cls-2,.cls-3{fill:none;stroke:#000;stroke-miterlimit:10;}.cls-2{stroke-width:3px;}.cls-3{stroke-width:2px;}</style></defs><path class="cls-1" d="M136.59,0V63.63A63.62,63.62,0,0,1,73,127.25H9.34V63.63c0-1.84.08-3.66.24-5.47a63.17,63.17,0,0,1,9.94-29.08c.23-.34.45-.69.69-1A63.57,63.57,0,0,1,73,.08Z" transform="translate(0 0)"/><path class="cls-2" d="M128.74,6.22V69.85a63.62,63.62,0,0,1-63.62,63.62H1.5V69.85c0-1.84.08-3.66.24-5.47A63.17,63.17,0,0,1,11.68,35.3c.23-.34.45-.69.69-1a63.57,63.57,0,0,1,52.76-28Z" transform="translate(0 0)"/><path class="cls-3" d="M11.42,35.66A63.31,63.31,0,0,0,1.5,69.85v-5.1A62.91,62.91,0,0,1,11.42,35.66Z" transform="translate(0 0)"/><rect x="22.21" y="47.09" width="37.98" height="7.84"/><rect x="22.21" y="64.55" width="31.25" height="7.84"/><rect x="72.09" y="64.55" width="34.41" height="7.84"/><rect x="64.25" y="47.1" width="7.84" height="45.5"/><rect x="22.21" y="64.55" width="7.84" height="28.05"/><rect x="98.67" y="47.09" width="7.84" height="45.5"/></svg>