<svg id="Ebene_1" data-name="Ebene 1" xmlns="http://www.w3.org/2000/svg" viewBox="0 0 93.67 78"><defs><style>.cls-1{fill:#ebeded;}.cls-2{fill:#fff;}.cls-2,.cls-3,.cls-8{stroke:#5b6b75;}.cls-2,.cls-3,.cls-4,.cls-5,.cls-8{stroke-linejoin:round;stroke-width:3px;}.cls-3,.cls-4,.cls-8{fill:none;}.cls-4,.cls-5{stroke:#95453f;}.cls-4,.cls-5,.cls-8{stroke-linecap:round;}.cls-5,.cls-7{fill:#95453f;}.cls-6{fill:#f5f7f7;}.cls-9{fill:#5b6b75;}</style></defs><polygon class="cls-1" points="10 10 10 78 64 78 64 26.8 47.37 10 10 10"/><polyline class="cls-2" points="38.5 2 38.5 19.5 56 19.5"/><polygon class="cls-3" points="1.5 1.5 1.5 69.5 55.5 69.5 55.5 18.8 38.37 1.5 1.5 1.5"/><line class="cls-4" x1="12" y1="33.5" x2="45" y2="33.5"/><line class="cls-5" x1="12" y1="44.5" x2="45" y2="44.5"/><line class="cls-4" x1="12" y1="55.5" x2="45" y2="55.5"/><path class="cls-6" d="M108.3,35.18l-4-4a3,3,0,0,0-4.24,0L96.4,34.79,94.61,33a3,3,0,0,0-4.25,0L77,46.4a3,3,0,0,0,0,4.24l1.79,1.79L67.37,63.81A3,3,0,0,0,66.65,65l-2,6a3,3,0,0,0,2.84,4,3.09,3.09,0,0,0,1-.15l3-1c2.88-1,4.19-1.4,4.73-2.27L108.3,39.42a3,3,0,0,0,0-4.24Z" transform="translate(-15.51 -16.63)"/><rect class="cls-7" x="68.5" y="50.5" width="35.22" height="5.69" transform="translate(-28.01 59.89) rotate(-45)"/><line class="cls-8" x1="77.04" y1="20.55" x2="65.63" y2="31.95"/><polygon class="cls-9" points="51.97 55.34 58.01 53.33 53.98 49.3 51.97 55.34"/><rect class="cls-7" x="100" y="34.17" width="4.88" height="5.69" transform="translate(-11.68 66.65) rotate(-45)"/></svg>